<?xml version="1.0" encoding="UTF-8" standalone="no"?><!-- Generator: Gravit.io --><svg xmlns="http://www.w3.org/2000/svg" xmlns:xlink="http://www.w3.org/1999/xlink" style="isolation:isolate" viewBox="566.528 305.736 93.956 103.792" width="93.956pt" height="103.792pt"><defs><clipPath id="_clipPath_0EfumNThjdy2ed1HNcvHrnDLpXi7k3TS"><rect x="566.528" y="305.736" width="93.956" height="103.792"/></clipPath></defs><g clip-path="url(#_clipPath_0EfumNThjdy2ed1HNcvHrnDLpXi7k3TS)"><path d=" M 589.352 352.392 L 589.352 352.392 Q 582.656 352.392 577.436 349.26 L 577.436 349.26 L 577.436 349.26 Q 572.216 346.128 569.372 340.764 L 569.372 340.764 L 569.372 340.764 Q 566.528 335.4 566.528 329.064 L 566.528 329.064 L 566.528 329.064 Q 566.528 321.648 570.272 316.356 L 570.272 316.356 L 570.272 316.356 Q 574.016 311.064 579.884 308.4 L 579.884 308.4 L 579.884 308.4 Q 585.752 305.736 591.872 305.736 L 591.872 305.736 L 591.872 305.736 Q 598.712 305.736 603.896 308.94 L 603.896 308.94 L 603.896 308.94 Q 609.08 312.144 611.852 317.4 L 611.852 317.4 L 611.852 317.4 Q 614.624 322.656 614.624 328.56 L 614.624 328.56 L 614.624 328.56 Q 614.624 335.112 611.168 340.584 L 611.168 340.584 L 611.168 340.584 Q 607.712 346.056 601.916 349.224 L 601.916 349.224 L 601.916 349.224 Q 596.12 352.392 589.352 352.392 L 589.352 352.392 L 589.352 352.392 Z  M 591.728 350.592 L 591.728 350.592 Q 595.76 350.592 598.964 348.252 L 598.964 348.252 L 598.964 348.252 Q 602.168 345.912 603.968 341.412 L 603.968 341.412 L 603.968 341.412 Q 605.768 336.912 605.768 330.648 L 605.768 330.648 L 605.768 330.648 Q 605.768 324.024 603.752 318.804 L 603.752 318.804 L 603.752 318.804 Q 601.736 313.584 597.92 310.632 L 597.92 310.632 L 597.92 310.632 Q 594.104 307.68 588.992 307.68 L 588.992 307.68 L 588.992 307.68 Q 582.44 307.68 578.912 312.612 L 578.912 312.612 L 578.912 312.612 Q 575.384 317.544 575.384 326.4 L 575.384 326.4 L 575.384 326.4 Q 575.384 333.384 577.508 338.892 L 577.508 338.892 L 577.508 338.892 Q 579.632 344.4 583.34 347.496 L 583.34 347.496 L 583.34 347.496 Q 587.048 350.592 591.728 350.592 L 591.728 350.592 L 591.728 350.592 Z  M 633.704 345.408 L 633.704 345.408 Q 633.704 347.712 634.208 348.756 L 634.208 348.756 L 634.208 348.756 Q 634.712 349.8 636.116 350.232 L 636.116 350.232 L 636.116 350.232 Q 637.52 350.664 640.616 350.664 L 640.616 350.664 L 640.616 350.664 Q 640.832 350.664 640.832 351.096 L 640.832 351.096 L 640.832 351.096 Q 640.832 351.528 640.616 351.528 L 640.616 351.528 L 640.616 351.528 Q 637.664 351.528 636.008 351.456 L 636.008 351.456 L 629.744 351.384 L 624.488 351.456 L 624.488 351.456 Q 623.048 351.528 620.6 351.528 L 620.6 351.528 L 620.6 351.528 Q 620.384 351.528 620.384 351.096 L 620.384 351.096 L 620.384 351.096 Q 620.384 350.664 620.6 350.664 L 620.6 350.664 L 620.6 350.664 Q 622.904 350.664 623.948 350.304 L 623.948 350.304 L 623.948 350.304 Q 624.992 349.944 625.352 348.9 L 625.352 348.9 L 625.352 348.9 Q 625.712 347.856 625.712 345.696 L 625.712 345.696 L 625.712 312.36 L 625.712 312.36 Q 625.712 310.2 625.352 309.192 L 625.352 309.192 L 625.352 309.192 Q 624.992 308.184 623.912 307.788 L 623.912 307.788 L 623.912 307.788 Q 622.832 307.392 620.6 307.392 L 620.6 307.392 L 620.6 307.392 Q 620.384 307.392 620.384 306.96 L 620.384 306.96 L 620.384 306.96 Q 620.384 306.528 620.6 306.528 L 620.6 306.528 L 624.416 306.6 L 624.416 306.6 Q 627.728 306.744 629.672 306.744 L 629.672 306.744 L 629.672 306.744 Q 631.4 306.744 633.776 306.528 L 633.776 306.528 L 633.776 306.528 Q 634.712 306.456 636.152 306.384 L 636.152 306.384 L 636.152 306.384 Q 637.592 306.312 639.464 306.312 L 639.464 306.312 L 639.464 306.312 Q 646.808 306.312 651.056 309.372 L 651.056 309.372 L 651.056 309.372 Q 655.304 312.432 655.304 318.84 L 655.304 318.84 L 655.304 318.84 Q 655.304 323.304 653 326.4 L 653 326.4 L 653 326.4 Q 650.696 329.496 647.06 331.08 L 647.06 331.08 L 647.06 331.08 Q 643.424 332.664 639.608 332.664 L 639.608 332.664 L 639.608 332.664 Q 637.664 332.664 636.224 332.304 L 636.224 332.304 L 636.224 332.304 Q 636.08 332.304 636.08 331.944 L 636.08 331.944 L 636.08 331.944 Q 636.08 331.728 636.188 331.512 L 636.188 331.512 L 636.188 331.512 Q 636.296 331.296 636.44 331.368 L 636.44 331.368 L 636.44 331.368 Q 637.52 331.656 638.888 331.656 L 638.888 331.656 L 638.888 331.656 Q 642.2 331.656 644.396 328.56 L 644.396 328.56 L 644.396 328.56 Q 646.592 325.464 646.592 319.776 L 646.592 319.776 L 646.592 319.776 Q 646.592 314.088 644.18 310.992 L 644.18 310.992 L 644.18 310.992 Q 641.768 307.896 637.16 307.896 L 637.16 307.896 L 637.16 307.896 Q 635.144 307.896 634.424 308.832 L 634.424 308.832 L 634.424 308.832 Q 633.704 309.768 633.704 312.504 L 633.704 312.504 L 633.704 345.408 L 633.704 345.408 Z " fill="rgb(0,0,0)"/><path d=" M 591.344 403.696 L 591.344 403.696 Q 591.344 405.928 591.704 406.936 L 591.704 406.936 L 591.704 406.936 Q 592.064 407.944 593.108 408.304 L 593.108 408.304 L 593.108 408.304 Q 594.152 408.664 596.456 408.664 L 596.456 408.664 L 596.456 408.664 Q 596.672 408.664 596.672 409.096 L 596.672 409.096 L 596.672 409.096 Q 596.672 409.528 596.456 409.528 L 596.456 409.528 L 596.456 409.528 Q 594.08 409.528 592.712 409.456 L 592.712 409.456 L 587.24 409.384 L 581.912 409.456 L 581.912 409.456 Q 580.472 409.528 578.024 409.528 L 578.024 409.528 L 578.024 409.528 Q 577.88 409.528 577.88 409.096 L 577.88 409.096 L 577.88 409.096 Q 577.88 408.664 578.024 408.664 L 578.024 408.664 L 578.024 408.664 Q 580.328 408.664 581.408 408.304 L 581.408 408.304 L 581.408 408.304 Q 582.488 407.944 582.884 406.9 L 582.884 406.9 L 582.884 406.9 Q 583.28 405.856 583.28 403.696 L 583.28 403.696 L 583.28 370.36 L 583.28 370.36 Q 583.28 368.2 582.884 367.192 L 582.884 367.192 L 582.884 367.192 Q 582.488 366.184 581.408 365.788 L 581.408 365.788 L 581.408 365.788 Q 580.328 365.392 578.024 365.392 L 578.024 365.392 L 578.024 365.392 Q 577.88 365.392 577.88 364.96 L 577.88 364.96 L 577.88 364.96 Q 577.88 364.528 578.024 364.528 L 578.024 364.528 L 581.912 364.6 L 581.912 364.6 Q 585.224 364.744 587.24 364.744 L 587.24 364.744 L 587.24 364.744 Q 589.472 364.744 592.784 364.6 L 592.784 364.6 L 596.456 364.528 L 596.456 364.528 Q 596.672 364.528 596.672 364.96 L 596.672 364.96 L 596.672 364.96 Q 596.672 365.392 596.456 365.392 L 596.456 365.392 L 596.456 365.392 Q 594.224 365.392 593.144 365.824 L 593.144 365.824 L 593.144 365.824 Q 592.064 366.256 591.704 367.3 L 591.704 367.3 L 591.704 367.3 Q 591.344 368.344 591.344 370.504 L 591.344 370.504 L 591.344 403.696 L 591.344 403.696 Z " fill="rgb(0,0,0)"/><path d=" M 660.124 408.664 L 660.124 408.664 Q 660.484 408.664 660.484 409.096 L 660.484 409.096 L 660.484 409.096 Q 660.484 409.528 660.124 409.528 L 660.124 409.528 L 660.124 409.528 Q 658.684 409.528 655.66 409.384 L 655.66 409.384 L 655.66 409.384 Q 652.492 409.24 651.124 409.24 L 651.124 409.24 L 651.124 409.24 Q 649.324 409.24 646.732 409.384 L 646.732 409.384 L 646.732 409.384 Q 644.284 409.528 642.844 409.528 L 642.844 409.528 L 642.844 409.528 Q 642.556 409.528 642.556 409.096 L 642.556 409.096 L 642.556 409.096 Q 642.556 408.664 642.844 408.664 L 642.844 408.664 L 642.844 408.664 Q 644.716 408.664 645.544 408.268 L 645.544 408.268 L 645.544 408.268 Q 646.372 407.872 646.372 406.864 L 646.372 406.864 L 646.372 406.864 Q 646.372 405.64 644.932 402.76 L 644.932 402.76 L 640.036 393.04 L 622.324 393.04 L 619.516 399.304 L 619.516 399.304 Q 618.58 401.392 618.58 403.192 L 618.58 403.192 L 618.58 403.192 Q 618.58 405.784 620.416 407.224 L 620.416 407.224 L 620.416 407.224 Q 622.252 408.664 625.348 408.664 L 625.348 408.664 L 625.348 408.664 Q 625.708 408.664 625.708 409.096 L 625.708 409.096 L 625.708 409.096 Q 625.708 409.528 625.348 409.528 L 625.348 409.528 L 625.348 409.528 Q 624.052 409.528 621.604 409.384 L 621.604 409.384 L 621.604 409.384 Q 618.868 409.24 616.852 409.24 L 616.852 409.24 L 616.852 409.24 Q 614.908 409.24 612.172 409.384 L 612.172 409.384 L 612.172 409.384 Q 609.724 409.528 608.212 409.528 L 608.212 409.528 L 608.212 409.528 Q 607.924 409.528 607.924 409.096 L 607.924 409.096 L 607.924 409.096 Q 607.924 408.664 608.212 408.664 L 608.212 408.664 L 608.212 408.664 Q 610.228 408.664 611.596 407.836 L 611.596 407.836 L 611.596 407.836 Q 612.964 407.008 614.332 404.884 L 614.332 404.884 L 614.332 404.884 Q 615.7 402.76 617.572 398.584 L 617.572 398.584 L 633.196 364.24 L 633.196 364.24 Q 633.34 364.024 633.844 364.024 L 633.844 364.024 L 633.844 364.024 Q 634.42 364.024 634.492 364.24 L 634.492 364.24 L 652.492 399.664 L 652.492 399.664 Q 655.012 404.776 656.668 406.72 L 656.668 406.72 L 656.668 406.72 Q 658.324 408.664 660.124 408.664 L 660.124 408.664 L 660.124 408.664 Z  M 630.676 374.608 L 623.26 391.024 L 638.956 391.024 L 630.676 374.608 L 630.676 374.608 Z " fill="rgb(0,0,0)"/></g></svg>